<?xml version="1.0" encoding="utf-8"?>
<!-- Generator: Adobe Illustrator 27.3.1, SVG Export Plug-In . SVG Version: 6.00 Build 0)  -->
<svg version="1.1" id="Warstwa_2_00000095313447320173727740000014188296721869684864_"
	 xmlns="http://www.w3.org/2000/svg" xmlns:xlink="http://www.w3.org/1999/xlink" x="0px" y="0px" viewBox="0 0 132.1 135.5"
	 style="enable-background:new 0 0 132.1 135.5;" xml:space="preserve">
<style type="text/css">
	.st0{fill:none;stroke:#7D4E24;stroke-width:2;stroke-miterlimit:10;}
	.st1{fill:#7C4E24;}
	.st2{font-family:'KristenITC-Regular';}
	.st3{font-size:12px;}
	.st4{fill:#12A9C9;}
</style>
<g id="Warstwa_1-2">
	<path class="st0" d="M39.3,37.6c0-0.1,0-0.4,0-0.6c-0.1-1.8-0.4-6.6,0.5-6.8c0.6-0.1,1.2,1.5,3,4c3.1,4.2,5.5,5.2,5.1,6.1
		c-0.9,2-13.4-3.3-16.7,0.9c-0.7,0.9-1.2,2.4-0.6,3.4c2.2,3.6,16-3.2,20.3,1.6c1.1,1.3,1.6,3.2,0.9,4.5c-1.6,3-8.9,3.7-14.6,1.8
		c-4.5-1.5-6.7-4.3-8.2-3.5c-1.2,0.7-0.9,3.2-0.5,5.2"/>
</g>
<text transform="matrix(1 0 0 1 55.1933 54.2315)"><tspan x="0" y="0" class="st1 st2 st3">Poo</tspan><tspan x="23.1" y="0" class="st4 st2 st3">Posting</tspan></text>
<g id="Warstwa_1-2_00000031911288115254191130000010649612867422463378_">
	<path class="st0" d="M39.3,76.7c0-0.1,0-0.4,0-0.6c-0.1-1.8-0.4-6.6,0.5-6.8c0.6-0.1,1.2,1.5,3,4c3.1,4.2,5.5,5.2,5.1,6.1
		c-0.9,2-13.4-3.3-16.7,0.9c-0.7,0.9-1.2,2.4-0.6,3.4c2.2,3.6,16-3.2,20.3,1.6c1.1,1.3,1.6,3.2,0.9,4.5c-1.6,3-8.9,3.7-14.6,1.8
		c-4.5-1.5-6.7-4.3-8.2-3.5c-1.2,0.7-0.9,3.2-0.5,5.2"/>
</g>
<text transform="matrix(1 0 0 1 7.4761 106.8732)"><tspan x="0" y="0" class="st1 st2 st3">Poo</tspan><tspan x="23.1" y="0" class="st4 st2 st3">Posting</tspan></text>
</svg>
