<?xml version="1.0" encoding="UTF-8"?>
<svg id="Warstwa_2" data-name="Warstwa 2" xmlns="http://www.w3.org/2000/svg" viewBox="0 0 67.21 42.56">
  <defs>
    <style>
      .cls-1 {
        fill: none;
        stroke: #7d4e24;
        stroke-miterlimit: 10;
        stroke-width: 2px;
      }

      .cls-2, .cls-3, .cls-4 {
        isolation: isolate;
      }

      .cls-3 {
        fill: #7c4e24;
      }

      .cls-3, .cls-4 {
        font-family: KristenITC-Regular, 'Kristen ITC';
        font-size: 12px;
      }

      .cls-4 {
        fill: #12a9c9;
      }
    </style>
  </defs>
  <g id="Warstwa_2-2" data-name="Warstwa 2">
    <g>
      <g id="Warstwa_1-2" data-name="Warstwa 1-2">
        <path class="cls-1" d="m32.15,8.4v-.6c-.1-1.8-.4-6.6.5-6.8.6-.1,1.2,1.5,3,4,3.1,4.2,5.5,5.2,5.1,6.1-.9,2-13.4-3.3-16.7.9-.7.9-1.2,2.4-.6,3.4,2.2,3.6,16-3.2,20.3,1.6,1.1,1.3,1.6,3.2.9,4.5-1.6,3-8.9,3.7-14.6,1.8-4.5-1.5-6.7-4.3-8.2-3.5-1.2.7-.9,3.2-.5,5.2"/>
      </g>
      <g class="cls-2">
        <text class="cls-3" transform="translate(.32 38.58)"><tspan x="0" y="0">Poo</tspan></text>
        <text class="cls-4" transform="translate(23.42 38.58)"><tspan x="0" y="0">Posting</tspan></text>
      </g>
    </g>
  </g>
</svg>