<svg width="147" height="32" viewBox="0 0 147 32" fill="none" xmlns="http://www.w3.org/2000/svg">
<path d="M12.1524 8.40443V7.80443C12.0524 6.00443 11.7524 1.20443 12.6524 1.00443C13.2524 0.904432 13.8524 2.50443 15.6524 5.00443C18.7524 9.20443 21.1524 10.2044 20.7524 11.1044C19.8524 13.1044 7.35239 7.80443 4.05239 12.0044C3.35239 12.9044 2.85239 14.4044 3.45239 15.4044C5.65239 19.0044 19.4524 12.2044 23.7524 17.0044C24.8524 18.3044 25.3524 20.2044 24.6524 21.5044C23.0524 24.5044 15.7524 25.2044 10.0524 23.3044C5.55239 21.8044 3.35239 19.0044 1.85239 19.8044C0.652388 20.5044 0.952388 23.0044 1.35239 25.0044" stroke="white" stroke-width="2" stroke-miterlimit="10"/>
<path d="M47.5375 13.2427C47.5375 15.0071 47.0623 16.4296 46.1118 17.5103C45.1678 18.5845 43.9438 19.1216 42.4399 19.1216C41.5284 19.1216 40.7602 18.9589 40.1352 18.6334C39.5558 18.3209 39.2661 17.966 39.2661 17.5689V17.5201C39.2661 17.2466 39.3474 17.0123 39.5102 16.817C39.673 16.6216 39.8715 16.524 40.1059 16.524C40.2166 16.524 40.5291 16.6347 41.0434 16.856C41.5642 17.0774 42.0362 17.188 42.4594 17.188C43.3448 17.188 44.0773 16.8332 44.6567 16.1236C45.2361 15.414 45.5258 14.509 45.5258 13.4088C45.5258 12.2759 45.0864 11.3612 44.2075 10.6646C43.3286 9.968 42.173 9.61969 40.7407 9.61969C40.324 9.61969 39.7316 9.66852 38.9633 9.76617C39.0805 11.6347 39.1391 13.0735 39.1391 14.0826C39.1391 16.2701 39.0935 18.2232 39.0024 19.942C38.8917 21.9862 38.6443 23.7733 38.2602 25.3033C38.1235 25.8502 37.8305 26.1236 37.3813 26.1236C36.6912 26.1236 36.3461 25.6581 36.3461 24.7271C36.3461 24.8313 36.5382 23.3436 36.9223 20.2642C37.0525 19.203 37.1176 17.8228 37.1176 16.1236C37.1176 13.8515 37.0655 11.9244 36.9614 10.3423C36.5056 10.5767 36.0011 10.9608 35.4477 11.4947C35.031 11.8983 34.7023 12.1002 34.4614 12.1002C34.1944 12.1002 33.9633 12.0025 33.768 11.8072C33.5662 11.6119 33.4653 11.384 33.4653 11.1236C33.4653 10.8371 33.7387 10.4302 34.2856 9.90289C35.8416 8.41201 37.9086 7.66656 40.4868 7.66656C42.6482 7.66656 44.3637 8.17112 45.6332 9.18024C46.9028 10.1828 47.5375 11.537 47.5375 13.2427ZM59.725 16.9048C59.725 18.8189 59.1651 20.3456 58.0454 21.4849C56.9256 22.6177 55.4314 23.1841 53.5629 23.1841C52.0135 23.1841 50.7993 22.6568 49.9204 21.6021C49.0415 20.5409 48.602 19.0696 48.602 17.188C48.602 15.2089 49.1326 13.6724 50.1938 12.5787C51.2355 11.5045 52.6808 10.9673 54.5297 10.9673C56.0792 10.9673 57.3325 11.511 58.2895 12.5982C59.2465 13.6854 59.725 15.121 59.725 16.9048ZM57.7817 16.9244C57.7817 15.6158 57.4627 14.5936 56.8247 13.858C56.1931 13.1158 55.3273 12.7447 54.227 12.7447C51.7726 12.7447 50.5454 14.2193 50.5454 17.1685C50.5454 18.5292 50.8123 19.5774 51.3461 20.313C51.88 21.0422 52.645 21.4068 53.6411 21.4068C54.9301 21.4068 55.9425 21.0129 56.6782 20.2252C57.4138 19.4374 57.7817 18.3371 57.7817 16.9244ZM72.0102 16.9048C72.0102 18.8189 71.4503 20.3456 70.3305 21.4849C69.2107 22.6177 67.7166 23.1841 65.8481 23.1841C64.2986 23.1841 63.0844 22.6568 62.2055 21.6021C61.3266 20.5409 60.8872 19.0696 60.8872 17.188C60.8872 15.2089 61.4178 13.6724 62.479 12.5787C63.5206 11.5045 64.9659 10.9673 66.8149 10.9673C68.3644 10.9673 69.6176 11.511 70.5747 12.5982C71.5317 13.6854 72.0102 15.121 72.0102 16.9048ZM70.0668 16.9244C70.0668 15.6158 69.7478 14.5936 69.1098 13.858C68.4783 13.1158 67.6124 12.7447 66.5122 12.7447C64.0577 12.7447 62.8305 14.2193 62.8305 17.1685C62.8305 18.5292 63.0974 19.5774 63.6313 20.313C64.1651 21.0422 64.9301 21.4068 65.9262 21.4068C67.2153 21.4068 68.2276 21.0129 68.9633 20.2252C69.699 19.4374 70.0668 18.3371 70.0668 16.9244Z" fill="white"/>
<path d="M86.5375 13.2427C86.5375 15.0071 86.0623 16.4296 85.1118 17.5103C84.1678 18.5845 82.9438 19.1216 81.4399 19.1216C80.5284 19.1216 79.7602 18.9589 79.1352 18.6334C78.5558 18.3209 78.2661 17.966 78.2661 17.5689V17.5201C78.2661 17.2466 78.3474 17.0123 78.5102 16.817C78.673 16.6216 78.8715 16.524 79.1059 16.524C79.2166 16.524 79.5291 16.6347 80.0434 16.856C80.5642 17.0774 81.0362 17.188 81.4594 17.188C82.3448 17.188 83.0773 16.8332 83.6567 16.1236C84.2361 15.414 84.5258 14.509 84.5258 13.4088C84.5258 12.2759 84.0864 11.3612 83.2075 10.6646C82.3286 9.968 81.173 9.61969 79.7407 9.61969C79.324 9.61969 78.7316 9.66852 77.9633 9.76617C78.0805 11.6347 78.1391 13.0735 78.1391 14.0826C78.1391 16.2701 78.0935 18.2232 78.0024 19.942C77.8917 21.9862 77.6443 23.7733 77.2602 25.3033C77.1235 25.8502 76.8305 26.1236 76.3813 26.1236C75.6912 26.1236 75.3461 25.6581 75.3461 24.7271C75.3461 24.8313 75.5382 23.3436 75.9223 20.2642C76.0525 19.203 76.1176 17.8228 76.1176 16.1236C76.1176 13.8515 76.0655 11.9244 75.9614 10.3423C75.5056 10.5767 75.0011 10.9608 74.4477 11.4947C74.031 11.8983 73.7023 12.1002 73.4614 12.1002C73.1944 12.1002 72.9633 12.0025 72.768 11.8072C72.5662 11.6119 72.4653 11.384 72.4653 11.1236C72.4653 10.8371 72.7387 10.4302 73.2856 9.90289C74.8416 8.41201 76.9086 7.66656 79.4868 7.66656C81.6482 7.66656 83.3637 8.17112 84.6332 9.18024C85.9028 10.1828 86.5375 11.537 86.5375 13.2427ZM98.725 16.9048C98.725 18.8189 98.1651 20.3456 97.0454 21.4849C95.9256 22.6177 94.4314 23.1841 92.5629 23.1841C91.0135 23.1841 89.7993 22.6568 88.9204 21.6021C88.0415 20.5409 87.602 19.0696 87.602 17.188C87.602 15.2089 88.1326 13.6724 89.1938 12.5787C90.2355 11.5045 91.6808 10.9673 93.5297 10.9673C95.0792 10.9673 96.3325 11.511 97.2895 12.5982C98.2465 13.6854 98.725 15.121 98.725 16.9048ZM96.7817 16.9244C96.7817 15.6158 96.4627 14.5936 95.8247 13.858C95.1931 13.1158 94.3273 12.7447 93.227 12.7447C90.7726 12.7447 89.5454 14.2193 89.5454 17.1685C89.5454 18.5292 89.8123 19.5774 90.3461 20.313C90.88 21.0422 91.645 21.4068 92.6411 21.4068C93.9301 21.4068 94.9425 21.0129 95.6782 20.2252C96.4138 19.4374 96.7817 18.3371 96.7817 16.9244ZM107.973 13.4283C107.973 14.0793 107.644 14.4048 106.987 14.4048C106.759 14.4048 106.58 14.3235 106.45 14.1607C106.359 14.011 106.264 13.858 106.166 13.7017C105.763 13.1809 105.226 12.9205 104.555 12.9205C103.403 12.9205 102.827 13.5748 102.827 14.8834C102.827 15.3391 102.931 15.7297 103.139 16.0552C103.315 16.3352 103.631 16.6509 104.086 17.0025C105.115 17.7903 105.756 18.3339 106.01 18.6334C106.544 19.2453 106.811 19.9485 106.811 20.7427C106.811 21.7844 106.472 22.634 105.795 23.2916C105.118 23.9426 104.236 24.2681 103.149 24.2681C102.114 24.2681 101.264 23.9979 100.6 23.4576C99.9555 22.9367 99.6332 22.2792 99.6332 21.4849C99.6332 20.6841 99.9783 20.2838 100.668 20.2838C101.248 20.2838 101.547 20.7297 101.567 21.6216C102.036 22.1815 102.563 22.4615 103.149 22.4615C103.637 22.4615 104.034 22.315 104.34 22.022C104.653 21.7226 104.809 21.3515 104.809 20.9088C104.809 20.5051 104.62 20.1242 104.243 19.7662C104.236 19.7532 103.758 19.3723 102.807 18.6236C101.492 17.5819 100.834 16.3612 100.834 14.9615C100.834 13.8222 101.183 12.9009 101.879 12.1978C102.582 11.4947 103.5 11.1431 104.633 11.1431C105.564 11.1431 106.362 11.3873 107.026 11.8755C107.657 12.3378 107.973 12.8554 107.973 13.4283ZM117.67 14.9029C117.67 15.1308 117.599 15.3261 117.456 15.4888C117.312 15.6451 117.143 15.7232 116.948 15.7232C116.85 15.7232 116.476 15.5963 115.825 15.3423C115.18 15.0884 114.549 14.9615 113.93 14.9615C113.735 14.9615 113.53 14.9745 113.315 15.0005C113.074 16.0617 112.954 17.0351 112.954 17.9205C112.954 19.0598 113.146 19.9354 113.53 20.5474C113.914 21.1594 114.448 21.4654 115.131 21.4654C115.34 21.4654 115.613 21.4003 115.952 21.2701C116.297 21.1334 116.544 21.065 116.694 21.065C117.215 21.065 117.475 21.371 117.475 21.983C117.475 22.3801 117.26 22.7024 116.831 22.9498C116.401 23.1972 115.815 23.3209 115.073 23.3209C112.312 23.3209 110.932 21.4817 110.932 17.8033C110.932 17.0285 111.026 16.1757 111.215 15.2447C111.033 15.2707 110.639 15.3456 110.034 15.4693C109.637 15.5474 109.344 15.5865 109.155 15.5865C108.458 15.5865 108.11 15.3196 108.11 14.7857C108.11 14.0565 109.311 13.5813 111.713 13.3599C112.208 11.7909 112.814 11.0064 113.53 11.0064C113.751 11.0064 113.94 11.0878 114.096 11.2505C114.252 11.4068 114.331 11.5989 114.331 11.8267C114.331 11.996 114.282 12.2108 114.184 12.4713C114.086 12.7252 113.989 12.9823 113.891 13.2427C116.411 13.3274 117.67 13.8808 117.67 14.9029ZM121.987 9.19977C121.987 10.1242 121.534 10.5865 120.629 10.5865C120.265 10.5865 119.956 10.4595 119.702 10.2056C119.454 9.95172 119.331 9.64573 119.331 9.28766C119.331 8.89703 119.467 8.565 119.741 8.29156C120.014 8.01813 120.349 7.88141 120.747 7.88141C121.118 7.88141 121.417 8.00185 121.645 8.24274C121.873 8.48362 121.987 8.80263 121.987 9.19977ZM121.567 12.9205C121.567 16.8463 121.427 19.7466 121.147 21.6216C121.036 22.3769 120.913 22.8847 120.776 23.1451C120.6 23.4901 120.317 23.6627 119.926 23.6627C119.666 23.6627 119.444 23.578 119.262 23.4088C119.08 23.233 118.989 23.0246 118.989 22.7838C118.989 22.8163 119.041 22.5917 119.145 22.1099C119.269 21.563 119.37 20.9413 119.448 20.2447C119.552 19.2551 119.604 18.1483 119.604 16.9244C119.604 16.3905 119.597 15.8274 119.584 15.2349C119.571 14.6425 119.565 14.3202 119.565 14.2681C119.565 13.3892 119.64 12.7772 119.789 12.4322C119.946 12.0546 120.239 11.8658 120.668 11.8658C121.267 11.8658 121.567 12.2173 121.567 12.9205ZM134.155 17.3638C134.155 18.9133 133.901 20.453 133.393 21.983C133.081 22.9335 132.693 23.4088 132.231 23.4088C131.984 23.4088 131.772 23.3339 131.596 23.1841C131.42 23.0279 131.332 22.8423 131.332 22.6275C131.332 22.5689 131.489 21.9765 131.801 20.8502C132.114 19.7173 132.27 18.5943 132.27 17.481C132.27 14.9485 131.479 13.6822 129.897 13.6822C128.992 13.6822 128.253 14.0175 127.68 14.688C127.088 15.3782 126.791 16.2896 126.791 17.4224C126.791 18.0539 126.879 18.9361 127.055 20.0689C127.237 21.1952 127.329 21.9992 127.329 22.481C127.329 23.6008 127.01 24.1607 126.372 24.1607C126.046 24.1607 125.821 24.0891 125.698 23.9459C125.6 23.8352 125.519 23.6073 125.454 23.2623C125.447 22.8586 125.366 21.6933 125.209 19.7662C124.942 17.0709 124.809 15.1568 124.809 14.024C124.809 12.0513 125.19 11.065 125.952 11.065C126.199 11.065 126.411 11.1431 126.586 11.2994C126.762 11.4491 126.85 11.6249 126.85 11.8267C126.85 11.97 126.811 12.2401 126.733 12.6373C126.655 13.0344 126.616 13.3697 126.616 13.6431V13.8677C127.579 12.5591 128.751 11.9048 130.131 11.9048C131.401 11.9048 132.387 12.3769 133.09 13.3209C133.8 14.2584 134.155 15.606 134.155 17.3638ZM146.03 11.0259C146.03 11.5338 145.743 11.7877 145.17 11.7877C145.092 11.7877 144.926 11.7746 144.672 11.7486C144.347 11.716 144.077 11.6933 143.862 11.6802C144.65 12.5461 145.043 13.5748 145.043 14.7662C145.043 15.925 144.633 16.8788 143.813 17.6275C142.999 18.3697 141.938 18.7408 140.629 18.7408C140.336 18.7408 139.868 18.7082 139.223 18.6431C138.67 19.0598 138.23 19.5546 137.905 20.1275C139.174 19.9778 140.014 19.9029 140.424 19.9029C143.094 19.9029 144.428 20.8241 144.428 22.6666C144.428 23.7798 143.924 24.6522 142.914 25.2838C141.912 25.9218 140.509 26.2408 138.706 26.2408C137.573 26.2408 136.668 26.0227 135.991 25.5865C135.359 25.1763 135.043 24.662 135.043 24.0435C135.043 23.8222 135.138 23.6301 135.327 23.4673C135.515 23.3046 135.737 23.2232 135.991 23.2232C136.16 23.2232 136.329 23.2981 136.498 23.4478C136.661 23.6236 136.824 23.7961 136.987 23.9654C137.306 24.2844 137.911 24.4439 138.803 24.4439C139.949 24.4439 140.841 24.2942 141.479 23.9947C142.097 23.7082 142.407 23.3111 142.407 22.8033C142.407 22.0676 141.554 21.6998 139.848 21.6998C139.444 21.6998 138.911 21.7388 138.247 21.817C137.589 21.8886 137.13 21.9244 136.87 21.9244C136.238 21.9244 135.922 21.703 135.922 21.2603C135.922 20.6418 136.531 19.5904 137.748 18.106C136.746 17.3964 136.245 16.3742 136.245 15.0396C136.245 13.8026 136.687 12.7447 137.573 11.8658C138.458 10.9869 139.542 10.5474 140.825 10.5474C141.098 10.5474 141.411 10.58 141.762 10.6451C141.977 10.3261 142.67 10.1666 143.842 10.1666C145.301 10.1666 146.03 10.453 146.03 11.0259ZM143.188 14.5806C143.188 13.858 142.97 13.2785 142.534 12.8423C142.104 12.4061 141.534 12.188 140.825 12.188C140.043 12.188 139.405 12.4517 138.911 12.9791C138.416 13.4999 138.168 14.1802 138.168 15.0201C138.168 16.3808 138.982 17.0611 140.61 17.0611C141.43 17.0611 142.065 16.8463 142.514 16.4166C142.963 15.9804 143.188 15.3684 143.188 14.5806Z" fill="white"/>
</svg>
