<?xml version="1.0" encoding="UTF-8"?>
<svg id="Warstwa_2" data-name="Warstwa 2" xmlns="http://www.w3.org/2000/svg" viewBox="0 0 26 25.32">
  <defs>
    <style>
      .cls-1 {
        fill: none;
        stroke: #7d4e24;
        stroke-miterlimit: 10;
        stroke-width: 2px;
      }
    </style>
  </defs>
  <g id="Warstwa_2-2" data-name="Warstwa 2">
    <g id="Warstwa_1-2" data-name="Warstwa 1-2">
      <path class="cls-1" d="m12.1,8.41c-.01-.15-.03-.35-.04-.59-.12-1.8-.44-6.56.52-6.81.58-.15,1.2,1.48,3.03,3.97,3.12,4.24,5.49,5.22,5.11,6.08-.87,1.97-13.35-3.27-16.71.87-.72.89-1.19,2.42-.57,3.43,2.23,3.62,16.03-3.23,20.3,1.57,1.14,1.28,1.61,3.25.92,4.53-1.59,2.97-8.91,3.72-14.57,1.8-4.52-1.54-6.74-4.34-8.24-3.49-1.2.69-.94,3.2-.53,5.23"/>
    </g>
  </g>
</svg>